<svg width="72" height="69" viewBox="0 0 72 69" fill="none" xmlns="http://www.w3.org/2000/svg">
<path d="M20.8636 63.3636C25.5049 66.2951 31.0561 68 37.0207 68C42.3947 68 47.4331 66.616 51.7727 64.1979" stroke="#67494E"/>
<path d="M6.95459 37.8636C7.1165 27.0385 12.9598 17.5896 21.6364 12.3636" stroke="#67494E"/>
<path d="M51 12.3636C60.2048 17.4196 66.4545 27.2891 66.4545 38.6364" stroke="#67494E"/>
<path d="M36.7046 0.5C41.7447 0.50005 45.8638 4.75546 45.8638 10.0459C45.8635 15.3361 41.7445 19.5908 36.7046 19.5908C31.6646 19.5908 27.5456 15.3362 27.5454 10.0459C27.5454 4.75543 31.6645 0.5 36.7046 0.5Z" stroke="#67494E"/>
<circle cx="61.0455" cy="51" r="9.54545" stroke="#67494E"/>
<circle cx="10.0455" cy="51" r="9.54545" stroke="#67494E"/>
</svg>
